#define splash_width 492
#define splash_height 136
static char splash_bits[] = {
 0x00,0x00,0x00,0x00,0x00,0x00,0x00,0x00,0x00,0x00,0x00,0x00,0x00,0x00,0x00,
 0x00,0x00,0x00,0x00,0x00,0x00,0x00,0x00,0x00,0x00,0x00,0x00,0x00,0x00,0x00,
 0x00,0x00,0x00,0x00,0x00,0x00,0x00,0x00,0x00,0x00,0x00,0x00,0x00,0x00,0x00,
 0x00,0x00,0x00,0x00,0x00,0x00,0x00,0x00,0x00,0x00,0x00,0x00,0x00,0x00,0x00,
 0x00,0xf0,0x00,0x00,0x00,0x00,0x00,0x00,0x00,0x00,0x00,0x00,0x00,0x00,0x00,
 0x00,0x00,0x00,0x00,0x00,0x00,0x00,0x00,0x00,0x00,0x00,0x00,0x00,0x00,0x00,
 0x00,0x00,0x00,0x00,0x00,0x00,0x00,0x00,0x00,0x00,0x00,0x00,0x00,0x00,0x00,
 0x00,0x00,0x00,0x00,0x00,0x00,0x00,0x00,0x00,0x00,0x00,0x00,0x00,0x00,0x00,
 0x00,0x00,0x00,0xf0,0x00,0x00,0x00,0x00,0x00,0x00,0x00,0x00,0x00,0x00,0x00,
 0x00,0x00,0x00,0x00,0x00,0x00,0x00,0x00,0x00,0x00,0x00,0xf4,0xff,0x3f,0x00,
 0x00,0x00,0x00,0x00,0x00,0x00,0x00,0x00,0x00,0x00,0x00,0x00,0x00,0x00,0x00,
 0x00,0x00,0x00,0x00,0x00,0x00,0x00,0x00,0x00,0x00,0x00,0x00,0x00,0x00,0x00,
 0x00,0x00,0x00,0x00,0x00,0xf0,0x00,0x00,0x00,0x00,0x00,0x00,0x00,0x00,0x00,
 0x00,0x00,0x00,0x00,0x00,0x00,0x00,0x00,0x80,0xfe,0xff,0x0f,0xfc,0xff,0xbf,
 0xee,0x17,0x00,0x00,0x00,0x00,0x00,0x00,0x00,0x00,0x00,0x00,0x00,0x00,0x00,
 0x00,0x00,0x00,0x00,0x00,0x00,0x00,0x00,0x00,0x00,0x00,0x00,0x00,0x00,0x00,
 0x00,0x00,0x00,0x00,0x00,0x00,0x00,0xf0,0x00,0x00,0x00,0x00,0x00,0x00,0x00,
 0x00,0x00,0x00,0x00,0x00,0x00,0x00,0x00,0x00,0x14,0xfd,0xfb,0xff,0x52,0xff,
 0x7f,0xeb,0x7b,0x2d,0x00,0x00,0x00,0x00,0x00,0x00,0x00,0x00,0x00,0x00,0x00,
 0x00,0x00,0x00,0x00,0x00,0x00,0x00,0x00,0x00,0x00,0x00,0x00,0x00,0x00,0x00,
 0x00,0x00,0x00,0x00,0x00,0x00,0x00,0x00,0x00,0xf0,0x00,0x00,0x00,0x00,0x00,
 0x00,0x00,0x00,0x00,0x00,0x00,0x00,0x00,0x00,0x00,0xc0,0x57,0xb8,0xaf,0x00,
 0xef,0xff,0xd7,0x7f,0xdf,0x7f,0x00,0x00,0x00,0x00,0x00,0x00,0x00,0x00,0x00,
 0x00,0x00,0x00,0x00,0xe0,0x03,0x00,0x00,0x00,0x00,0x00,0x00,0x00,0x00,0x00,
 0x00,0x00,0x00,0x00,0x00,0x00,0x00,0x00,0x00,0x00,0x00,0xf0,0x00,0x00,0x00,
 0x00,0x00,0x00,0x00,0x00,0x00,0x00,0x00,0x00,0x00,0x00,0x00,0x00,0x80,0x6f,
 0x08,0xfd,0x7f,0x6b,0xfd,0xda,0x7b,0x2d,0x00,0x00,0x00,0x00,0x00,0x00,0x00,
 0x00,0x00,0x00,0x00,0x00,0x00,0x00,0x28,0x16,0x00,0x00,0x00,0x00,0x00,0x00,
 0x00,0x00,0x00,0x00,0x00,0x00,0x00,0x00,0x00,0x00,0x00,0x00,0x00,0xf0,0x00,
 0x00,0x00,0x00,0x00,0x00,0x00,0x00,0x00,0x00,0x00,0x00,0x00,0x00,0x00,0x48,
 0xf9,0x12,0x80,0xaf,0xdb,0xff,0xb7,0xff,0xee,0x17,0x00,0x00,0x00,0x00,0x00,
 0x00,0x00,0x00,0x00,0x00,0x00,0x00,0x00,0x00,0x40,0xe9,0xab,0x00,0x00,0x00,
 0x00,0x00,0x00,0x00,0x00,0x00,0x00,0x00,0x00,0x00,0x00,0x00,0x00,0x00,0x00,
 0xf0,0x00,0x00,0x00,0x00,0x00,0x00,0x00,0x00,0x00,0x00,0x00,0x2a,0xfc,0x3f,
 0x00,0xf0,0x4f,0x02,0x00,0x00,0xfc,0xd6,0xfe,0xad,0xbf,0x1d,0x00,0x00,0x00,
 0x00,0x00,0x00,0x00,0x00,0x00,0x00,0x00,0x00,0x00,0x80,0xfe,0x5f,0xbd,0x07,
 0x00,0x00,0x00,0x00,0x00,0x00,0x00,0x00,0x00,0x00,0x00,0x00,0x00,0x00,0x00,
 0x00,0x00,0xf0,0x00,0x00,0x00,0x00,0x00,0x00,0x00,0x00,0x00,0x00,0x80,0x3a,
 0x74,0x15,0x00,0xa0,0x1f,0x01,0x00,0x00,0xf8,0xff,0x6b,0xff,0xea,0x0b,0x00,
 0x00,0x00,0x00,0x00,0x00,0x00,0x00,0x00,0x00,0x00,0x00,0x00,0x40,0x7f,0xeb,
 0xd6,0x12,0x00,0x00,0x00,0x00,0x00,0x00,0x00,0x00,0x00,0x00,0x00,0x00,0x00,
 0x00,0x00,0x00,0x00,0xf0,0x00,0x00,0x00,0x00,0x00,0x00,0x00,0x00,0x00,0x00,
 0xf0,0xd7,0xa9,0x80,0x8f,0xbe,0x2a,0x04,0x00,0x00,0x78,0x6d,0xff,0xd5,0x7f,
 0x00,0x00,0x00,0x00,0x00,0x00,0x00,0x00,0x00,0x00,0x00,0x00,0x80,0x00,0xf4,
 0xd7,0xb6,0xb5,0x5a,0x2f,0xad,0x00,0x00,0x01,0x00,0x00,0x00,0x00,0x00,0x00,
 0x00,0x00,0x00,0x00,0x00,0x00,0xf0,0x00,0x00,0x00,0x00,0x00,0x00,0x00,0x00,
 0x00,0x00,0x00,0xf8,0xfe,0x01,0x7a,0xf8,0xff,0x5f,0x00,0x00,0xdc,0xfb,0xad,
 0x7f,0xdb,0x00,0x00,0x00,0x00,0x00,0x00,0x00,0x00,0x00,0x00,0x00,0x00,0xc0,
 0xf2,0xdf,0x6a,0x5b,0xdb,0xed,0xd5,0xb7,0x8b,0xfb,0xff,0x2d,0x00,0x00,0x00,
 0x00,0x00,0x00,0x00,0x00,0x00,0x00,0x00,0xf0,0x00,0x00,0x00,0x00,0xd0,0xff,
 0xbf,0x00,0x00,0x14,0x00,0xec,0x7f,0x01,0x3e,0xa0,0xd5,0xbf,0x01,0x00,0x68,
 0x5f,0xff,0xed,0x57,0x00,0x00,0x00,0x00,0x00,0x80,0xfe,0x07,0x00,0x00,0x00,
 0x20,0x40,0x01,0xa8,0xbd,0xed,0xad,0xb6,0xda,0xda,0xfa,0x6e,0xad,0xf6,0xff,
 0x01,0x00,0x00,0x00,0x00,0x00,0x00,0x00,0x00,0x00,0xf0,0x00,0x00,0x00,0x60,
 0xff,0xff,0xff,0xff,0xfe,0xff,0xff,0x57,0x5b,0xf8,0x7b,0x70,0x00,0xf5,0x01,
 0x00,0xac,0xf7,0x6b,0x77,0x01,0x00,0x00,0x00,0x00,0x00,0x70,0xab,0xf4,0x13,
 0x20,0x20,0x91,0xbe,0x00,0xfc,0xd6,0xb6,0xf6,0x5b,0x6f,0xb7,0xae,0xb5,0x6a,
 0x55,0x95,0xfe,0xff,0xff,0x0f,0x00,0x00,0x00,0x00,0x00,0x00,0xf0,0x00,0x00,
 0x00,0xf0,0xff,0xbf,0xfb,0xff,0xff,0xff,0xff,0x23,0x3f,0xf0,0xde,0x1d,0x00,
 0xdc,0x00,0x00,0xd8,0xdd,0xfe,0xd3,0x00,0x00,0x00,0x00,0x00,0x00,0xdf,0x95,
 0x52,0xed,0x60,0xf0,0x7f,0x55,0x02,0x54,0xbb,0xad,0x2d,0xed,0xb5,0xad,0x75,
 0x5b,0x57,0x5b,0xd5,0xea,0x5f,0x8a,0x3d,0x00,0x00,0x00,0x00,0x00,0x00,0xf0,
 0x00,0x00,0x00,0xe0,0xbf,0xff,0xef,0xff,0xff,0xf7,0xbe,0xff,0xf7,0xbf,0x7f,
 0x5d,0x00,0xf5,0x0f,0x00,0x7e,0xff,0x5b,0x00,0x00,0x00,0x00,0x00,0x00,0x00,
 0x56,0xa8,0xaa,0x92,0x22,0x5c,0xaa,0x90,0x02,0xea,0xd6,0xf6,0xf6,0xaa,0x5a,
 0xf5,0xaa,0xd6,0xb9,0x6d,0x5b,0x35,0x69,0x6b,0xa5,0x00,0x00,0x00,0x00,0x00,
 0x00,0xf0,0x00,0x00,0xe0,0x7f,0xfb,0xf6,0xff,0xb6,0xef,0xdf,0xf7,0xfe,0xde,
 0xff,0xf6,0x02,0xe4,0x5f,0x08,0x00,0xee,0x2d,0x05,0x00,0x00,0x00,0x00,0x00,
 0x00,0x80,0x5f,0x83,0x95,0x02,0x94,0x52,0x55,0x2a,0x01,0x5c,0x7b,0x5b,0x5b,
 0xbf,0xed,0x56,0xb7,0x6b,0xae,0xaa,0xaa,0xd6,0x56,0xad,0xaa,0x05,0x00,0x00,
 0x00,0x00,0x00,0xf0,0x00,0x00,0x00,0xfe,0xff,0xff,0xfe,0xff,0xfd,0xfe,0xff,
 0xdb,0x7f,0xff,0x8a,0x07,0xd0,0xff,0x00,0x00,0xbc,0x3f,0x00,0x00,0x00,0x00,
 0x00,0x00,0x00,0xe0,0xa5,0xc0,0x52,0x49,0xa9,0x2a,0x11,0x85,0x04,0xe8,0xad,
 0xad,0xed,0xd2,0x56,0xbb,0x5a,0xb5,0xab,0xd5,0xd6,0xaa,0xaa,0xaa,0xaa,0x2a,
 0x00,0x00,0x00,0x00,0x00,0xf0,0x00,0x00,0xfc,0xff,0xff,0xdf,0xbb,0xff,0xff,
 0xff,0xee,0x7f,0xf7,0x0b,0xa0,0x00,0x80,0x0f,0x00,0x00,0xf6,0x05,0x00,0x00,
 0x00,0x00,0x00,0x00,0x00,0xbc,0x2a,0x68,0xab,0xaa,0x94,0x8a,0xaa,0x28,0x09,
 0xb4,0xd6,0xf6,0x56,0x6f,0xfb,0xd5,0xad,0xad,0xd4,0x6e,0x5b,0x55,0xdb,0xaa,
 0x56,0x95,0x00,0x00,0x00,0x00,0x00,0xf0,0x00,0x00,0xfd,0xbb,0xb7,0xff,0xff,
 0xbb,0xb7,0xdb,0x7f,0xff,0xfd,0x4d,0x00,0x00,0x05,0x44,0x00,0x00,0xbc,0x0b,
 0x00,0x00,0x00,0x00,0x00,0x00,0x80,0x6d,0x95,0x54,0x49,0x2a,0x55,0x52,0x44,
 0xa5,0x02,0x58,0x7b,0x5b,0xbb,0xb5,0xaa,0xae,0xf6,0xd6,0x6e,0xb5,0x6a,0x6b,
 0x55,0x7a,0x59,0x15,0x00,0x00,0x00,0x00,0x00,0xf0,0x00,0xc0,0xff,0xff,0xfb,
 0xfb,0xef,0xff,0xfe,0xff,0xfb,0xed,0x5f,0x00,0x00,0xf0,0x3f,0x00,0x00,0x00,
 0xf8,0x03,0x00,0x00,0x00,0x00,0x00,0x00,0x80,0x97,0x2a,0xa0,0xaa,0x52,0x49,
 0xa9,0x2a,0x12,0x04,0xe8,0xad,0xad,0x6d,0xdd,0x57,0xb5,0x95,0x6a,0x55,0x55,
 0x55,0xad,0x2a,0x20,0xa6,0x0a,0x00,0x00,0x00,0x00,0x00,0xf0,0x00,0xd0,0xff,
 0x57,0x41,0x7d,0xff,0xfe,0xdf,0x77,0xdf,0xbf,0x3b,0x00,0x00,0xe0,0x2f,0x10,
 0x00,0x00,0x80,0x02,0x00,0x00,0x00,0x00,0x00,0x00,0xc0,0xaa,0x2a,0x80,0x40,
 0x4a,0x25,0x45,0x52,0xa9,0x10,0xb5,0xd6,0xf6,0xb6,0x6b,0xed,0xdb,0x76,0xb7,
 0xb6,0xad,0xad,0xaa,0x2a,0x00,0x0d,0x00,0x00,0x00,0x00,0x00,0x00,0xf0,0x00,
 0x00,0x5a,0x00,0x00,0xe0,0xfd,0xef,0xff,0xfe,0xff,0xfb,0x3f,0x00,0x00,0xfc,
 0x7d,0x39,0x00,0x00,0x00,0x00,0x00,0x00,0x00,0x00,0x00,0x00,0x00,0x87,0x25,
 0x00,0xaa,0x2a,0x95,0x2a,0x25,0x05,0x44,0xdd,0x7b,0x5b,0xdb,0xb6,0x36,0xad,
 0xda,0x5a,0xdb,0xb6,0xd6,0x00,0x00,0x00,0x16,0x00,0x00,0x00,0x00,0x00,0x00,
 0xf0,0x00,0x80,0x95,0x00,0x00,0xc0,0xb7,0xfd,0xf6,0xdf,0x76,0xef,0xb6,0x00,
 0x00,0x78,0xb7,0x3f,0x00,0x00,0x00,0x00,0x00,0x00,0x00,0x00,0x00,0x0e,0x00,
 0x80,0x1a,0xe0,0x4a,0xa9,0x54,0x92,0x94,0x08,0x58,0x6b,0xad,0x6d,0x6d,0x5b,
 0xdb,0x76,0x57,0xab,0x55,0x55,0x55,0x00,0x00,0x80,0x55,0x00,0x00,0x00,0x00,
 0x00,0x00,0xf0,0x00,0x40,0x2b,0x00,0x00,0xe0,0xff,0xff,0xff,0xfe,0xff,0xff,
 0x7f,0x01,0x00,0xd8,0xff,0x5e,0x00,0x00,0x00,0x00,0x00,0x00,0x00,0x00,0x00,
 0x1e,0x00,0x20,0x2b,0xa0,0x2a,0xa5,0x52,0x55,0x4a,0x05,0xd4,0xb6,0xed,0xd6,
 0xb6,0xed,0x6d,0xdb,0x6a,0xb5,0xaa,0xda,0xda,0x00,0x00,0x80,0xae,0x00,0x00,
 0x00,0x00,0x00,0x00,0xf0,0x00,0x08,0x00,0x00,0x00,0x40,0xff,0xb7,0xdf,0xf7,
 0xdf,0x7d,0xb7,0x0b,0x00,0x7e,0xdb,0x37,0x00,0x00,0x00,0x00,0x00,0x00,0x00,
 0x00,0x00,0x02,0x00,0x30,0x00,0xe0,0x54,0x95,0x4a,0x22,0x21,0x12,0xb4,0xdd,
 0x56,0x7b,0xdb,0xb6,0xaa,0x55,0x5d,0x5b,0xbb,0x6b,0xab,0x00,0x00,0x00,0xbb,
 0x00,0x00,0x00,0x00,0x00,0x00,0xf0,0x00,0x00,0x00,0x00,0x00,0x90,0xdd,0xfe,
 0xfb,0x7f,0xfb,0xef,0xfd,0x77,0xd1,0xff,0xff,0x7d,0x01,0x00,0x00,0x00,0x00,
 0x00,0x00,0x00,0xa0,0x09,0x00,0x30,0xc2,0x6b,0xa5,0x54,0x29,0x55,0x55,0x09,
 0x6c,0x6b,0xfb,0xaa,0x6d,0xd5,0xde,0xb6,0xab,0xad,0x55,0x55,0xad,0x02,0x18,
 0x00,0x60,0x01,0x00,0x00,0x00,0x00,0x00,0xf0,0x00,0x00,0x00,0x00,0x00,0xc8,
 0xff,0xff,0xfe,0xee,0x6f,0xff,0xbf,0xff,0xf0,0xd7,0x6b,0xef,0x05,0x00,0x00,
 0x00,0x00,0x00,0x00,0x00,0xf8,0x20,0x00,0x7f,0x55,0x95,0x2a,0x25,0x95,0x24,
 0x8a,0x00,0xda,0xdd,0x96,0xdd,0xb6,0x5e,0x6b,0x6d,0x75,0xd5,0xda,0x5a,0xb5,
 0xfa,0x03,0x00,0xc0,0x03,0x00,0x00,0x00,0x00,0x00,0xf0,0x00,0x00,0x00,0x00,
 0x00,0x80,0xf7,0xdb,0xdf,0xff,0xfe,0x75,0xef,0xbd,0xf0,0xfd,0xfe,0x7d,0x03,
 0x00,0x00,0x00,0x00,0x00,0x00,0x00,0x50,0xa8,0xc1,0xab,0x52,0x55,0x52,0x95,
 0xaa,0x52,0x15,0x4a,0x6c,0x6b,0x7b,0x6b,0xdb,0xb5,0xd5,0xb6,0xad,0x6d,0x6d,
 0xab,0x55,0xad,0x86,0x01,0x00,0x00,0x00,0x00,0x00,0x00,0x00,0xf0,0x00,0x00,
 0x00,0x00,0x00,0x80,0xbf,0xff,0x7b,0xf7,0xfb,0xff,0xfb,0xf7,0x7e,0xdf,0xb7,
 0xdf,0x09,0x00,0x00,0x00,0x00,0x00,0x00,0x00,0x5c,0x5c,0x64,0x95,0x2a,0xa5,
 0x4a,0xa9,0x44,0x8a,0x08,0x28,0xb7,0xbd,0xd5,0xb6,0x6d,0xdb,0x6e,0xab,0x56,
 0xb5,0x56,0xb5,0xd6,0xaa,0x8a,0x03,0x00,0x02,0x00,0x00,0x00,0x00,0x00,0xf0,
 0x00,0x00,0x00,0x00,0x00,0xe0,0xfd,0xfe,0xff,0xbf,0x6f,0xbf,0xdf,0xde,0xff,
 0x7b,0x4f,0x3d,0x02,0x00,0x00,0x00,0x00,0x00,0x00,0x00,0x00,0x50,0xf1,0xaa,
 0xaa,0xaa,0x2a,0x55,0x32,0x55,0x25,0xa4,0xda,0xd6,0x6e,0xdb,0xb6,0x6d,0xb5,
 0xdd,0xda,0x56,0x6b,0x5b,0x55,0x6b,0x0b,0x06,0x00,0x00,0x00,0x00,0x00,0x00,
 0x00,0xf0,0x00,0x00,0x00,0x00,0x00,0x80,0xea,0xd7,0xde,0xfb,0xff,0xed,0xfd,
 0xff,0x6e,0xef,0x05,0x80,0x03,0x00,0x00,0x00,0x00,0x00,0x00,0x00,0x00,0x04,
 0x2c,0xaa,0xaa,0x54,0xaa,0x24,0x95,0x48,0x12,0xd8,0x6f,0xbb,0xb5,0xad,0xda,
 0xb6,0xdb,0xaa,0x6d,0xb5,0xad,0xd5,0x6a,0xad,0x0a,0x00,0x00,0x00,0x00,0x00,
 0x00,0x00,0x00,0xf0,0x00,0x00,0x00,0x00,0x00,0x80,0xff,0xff,0x7b,0xdf,0xfd,
 0xbf,0x6f,0xf7,0xfb,0x7f,0x0f,0xe0,0x1b,0x00,0x00,0x00,0x00,0x00,0x00,0x00,
 0x00,0xf0,0xa5,0x55,0xaa,0xaa,0x92,0xaa,0x4a,0x25,0x09,0x62,0xf5,0xd6,0xde,
 0xf6,0x6b,0xd5,0x56,0xdd,0x56,0x5b,0xb5,0xaa,0x56,0x55,0x15,0x10,0x00,0x00,
 0x00,0x00,0x00,0x00,0x00,0xf0,0x00,0x00,0x00,0x00,0x00,0x80,0x77,0xff,0xff,
 0x7d,0xb7,0xfb,0xfe,0xbd,0xbf,0xed,0x05,0x01,0x0a,0x00,0x00,0x00,0x00,0x00,
 0x00,0x00,0x00,0xc0,0xb7,0x54,0x49,0x95,0xaa,0x4a,0xa9,0x94,0x2a,0xa8,0xae,
 0x7b,0x6b,0x9b,0xb6,0xbb,0x7a,0x6b,0xb5,0xd5,0xd6,0xb6,0xaa,0x6a,0x2b,0x00,
 0x00,0x00,0x00,0x00,0x00,0x00,0x00,0xf0,0x00,0x00,0x00,0x00,0x00,0xc0,0xff,
 0x5b,0xef,0xff,0xff,0xff,0xf7,0xf7,0xee,0xbf,0x4f,0x03,0x00,0x00,0x00,0x00,
 0x00,0x00,0x00,0x00,0x00,0x40,0x93,0xaa,0xa6,0x52,0x55,0x51,0x94,0x52,0x12,
 0xc0,0x75,0xad,0xb5,0x6d,0xdb,0xd6,0xad,0x55,0x5b,0xad,0xaa,0xaa,0x6d,0x5b,
 0x15,0x00,0x00,0x00,0x00,0x00,0x00,0x00,0x00,0xf0,0x00,0x00,0x00,0x00,0x00,
 0xe0,0xde,0xff,0xff,0xef,0xdf,0xde,0x5f,0xdf,0x7b,0xdb,0x15,0x00,0x00,0x00,
 0x00,0x00,0x00,0x00,0x00,0x00,0x00,0xc0,0xab,0xaa,0x42,0x4a,0x29,0x2d,0x4b,
 0x29,0x25,0x60,0xbf,0xed,0xde,0xb6,0x6d,0xbb,0xd6,0xbe,0xd5,0xb6,0x6d,0x5b,
 0xb5,0xaa,0x16,0x00,0x00,0x00,0x00,0x00,0x00,0x00,0x00,0xf0,0x00,0x00,0x00,
 0x00,0x00,0xf0,0x7f,0xff,0xbb,0xbe,0xfb,0xf7,0xfd,0xff,0xef,0x05,0x06,0x00,
 0x00,0x00,0x00,0x00,0x00,0x00,0x00,0x00,0x00,0xc0,0x55,0xc5,0x8d,0x2b,0xa5,
 0xc2,0x28,0x95,0x04,0xa8,0xff,0x5a,0x6b,0xdb,0xb6,0x6d,0x6b,0xd3,0x6e,0xd5,
 0x56,0xad,0xaa,0xd5,0x0a,0x80,0x0b,0x00,0x00,0x00,0x00,0x00,0x00,0xf0,0x00,
 0x00,0x00,0x00,0x00,0xf8,0xfb,0xb7,0xff,0xfb,0x7f,0xbf,0xff,0xed,0xfe,0x01,
 0x00,0x00,0x00,0x00,0x00,0x00,0x00,0x00,0x00,0x00,0xf8,0xff,0x0b,0x00,0x0b,
 0x7c,0x55,0x35,0xa5,0xa4,0x02,0xd4,0xbf,0xa2,0xbb,0x6d,0xdb,0xb6,0xbd,0x6d,
 0xb5,0xb6,0xda,0x6a,0xad,0xb6,0x00,0xe0,0x04,0x00,0x00,0x00,0x00,0x00,0x00,
 0xf0,0x00,0x00,0x00,0x00,0x00,0xfe,0xff,0xff,0xfe,0xef,0xed,0xfb,0x6e,0xbf,
 0x17,0x00,0x00,0x00,0x00,0x00,0x00,0x00,0x00,0x00,0x00,0x00,0x68,0xac,0x08,
 0x00,0xf0,0xa0,0xa2,0x95,0x2a,0x70,0x09,0xd5,0x57,0xe8,0x6d,0xb7,0x6d,0xdb,
 0xd6,0xb6,0x56,0x5b,0x6b,0xab,0xb5,0xaa,0x00,0x00,0x00,0x00,0x00,0x00,0x00,
 0x00,0x00,0xf0,0x00,0x00,0x00,0x00,0x00,0x7d,0xb7,0xfd,0xb7,0xbf,0xff,0xff,
 0xff,0xfb,0x85,0x00,0x00,0x00,0x00,0x00,0x00,0x00,0x00,0x00,0x00,0x00,0xb8,
 0x55,0x05,0x00,0xe8,0xc0,0xd2,0x55,0x95,0xd0,0x05,0xaa,0xaf,0xa0,0xab,0xdd,
 0xb6,0x6d,0x6b,0xdb,0xeb,0xaa,0x55,0xb5,0xaa,0xd5,0x00,0x00,0x00,0x00,0x00,
 0x00,0x00,0x00,0x00,0xf0,0x00,0x00,0x00,0x00,0x80,0xff,0xff,0xef,0xff,0xfe,
 0x7f,0xb7,0xdb,0xef,0x03,0x00,0x00,0x00,0x00,0x00,0x00,0x00,0x00,0x00,0x00,
 0x00,0xac,0xaa,0x00,0x40,0x00,0x91,0x02,0xc2,0x25,0xf4,0x96,0xb6,0x5b,0xfd,
 0xaf,0xb6,0xdb,0xb6,0xba,0x55,0x5d,0xdb,0xba,0x56,0x81,0x5a,0x00,0x00,0x06,
 0x00,0x00,0x00,0x00,0x00,0x00,0xf0,0x00,0x00,0x00,0x00,0x00,0xdf,0xff,0x7f,
 0xff,0xfb,0xed,0xff,0x7e,0x7f,0x00,0x00,0x00,0x00,0x00,0x00,0x00,0x00,0x00,
 0x00,0x00,0x00,0x78,0x55,0x00,0x20,0x80,0x00,0x03,0xe9,0x0b,0xe8,0x6f,0x5b,
 0x35,0xfe,0xc3,0xfd,0x6f,0xdb,0xd7,0xee,0xaa,0xad,0x56,0xab,0x01,0x70,0x01,
 0x00,0x0e,0x00,0x00,0x00,0x00,0x00,0x00,0xf0,0x00,0x00,0x00,0x00,0x00,0x7f,
 0xdb,0xfd,0xed,0xbf,0xff,0xfd,0xfb,0x3d,0x00,0x00,0x00,0x00,0x00,0x00,0x00,
 0x00,0x00,0x00,0x00,0x00,0xf8,0x0b,0x00,0x00,0x60,0x00,0x45,0xff,0x85,0x52,
 0xb5,0xed,0xde,0x5e,0xd5,0xff,0xbf,0x56,0x6d,0x5b,0xdb,0x76,0xab,0xb5,0x2a,
 0x80,0x06,0x00,0x0a,0x00,0x00,0x00,0x00,0x00,0x00,0xf0,0x00,0x00,0x00,0x00,
 0x80,0xff,0xff,0xf7,0xbf,0xff,0xbe,0xdf,0xef,0x37,0x00,0x00,0x00,0x00,0x00,
 0x00,0x00,0x00,0x00,0x00,0x00,0x00,0x80,0x05,0xfa,0xff,0x00,0x00,0x00,0x10,
 0xc6,0x7f,0x6f,0xb7,0xb5,0x76,0xd5,0xff,0xae,0xbb,0xb6,0xb5,0xad,0xaa,0x6d,
 0xd5,0x5a,0x00,0x06,0x00,0x0f,0x00,0x00,0x00,0x00,0x00,0x00,0xf0,0x00,0x00,
 0x00,0x00,0x00,0xf7,0xff,0xdf,0xff,0xf7,0xf7,0x06,0x04,0x80,0x00,0x00,0x00,
 0x00,0x00,0x00,0x00,0x00,0x00,0x00,0x00,0x00,0x00,0x00,0x00,0x00,0x00,0x00,
 0x00,0x00,0x00,0x00,0x00,0x00,0x00,0x00,0x00,0x00,0x00,0x00,0x00,0x00,0x00,
 0x00,0x00,0x00,0x00,0x00,0x06,0x80,0x0b,0x00,0x00,0x00,0x00,0x00,0x00,0xf0,
 0x00,0x00,0x00,0x00,0x00,0xde,0x6d,0xff,0xfe,0xde,0xff,0x07,0xbf,0xcf,0x03,
 0x00,0x00,0x00,0x00,0x00,0x00,0xfc,0x00,0x00,0x00,0x00,0x00,0x80,0x07,0x00,
 0x00,0xf0,0x00,0x00,0x70,0x00,0x00,0xfc,0x0f,0x00,0x00,0x1c,0x00,0x00,0xf0,
 0xf8,0xfc,0x01,0x1e,0xff,0x1f,0x00,0x04,0x70,0x15,0x00,0x00,0x00,0x00,0x00,
 0x00,0xf0,0x00,0x00,0x00,0x00,0x00,0xf0,0xff,0xff,0xf7,0xff,0xff,0x87,0x7f,
 0xef,0x03,0x00,0x00,0x00,0x00,0x00,0x00,0xfc,0x03,0x00,0x00,0x00,0x00,0x80,
 0x07,0x00,0x00,0x70,0x00,0x00,0x78,0x00,0x00,0xfc,0x07,0x00,0x00,0x1e,0x00,
 0x00,0x78,0xfc,0xfd,0x07,0x9f,0xff,0x1f,0x00,0x00,0xac,0x00,0x00,0x00,0x00,
 0x00,0x00,0x00,0xf0,0x00,0x00,0x00,0x00,0x00,0xe0,0xff,0xfb,0xff,0x7f,0xdb,
 0xc6,0xff,0x8f,0x01,0x00,0x00,0x00,0x00,0x00,0x00,0xfc,0x07,0x00,0x00,0x00,
 0x00,0xc0,0x07,0x00,0x00,0xf0,0x00,0x00,0x30,0x00,0x00,0xfc,0x0f,0x00,0x00,
 0x1e,0x00,0x00,0x78,0xfe,0xfd,0x0f,0x3f,0xdf,0x3f,0x00,0x80,0x07,0x00,0x00,
 0x00,0x00,0x00,0x00,0x00,0xf0,0x00,0x00,0x00,0x00,0x00,0x40,0xbc,0x6f,0xdf,
 0xfb,0xff,0xc7,0x63,0x0f,0x00,0x00,0x00,0x00,0x03,0x00,0x00,0xbc,0x07,0x00,
 0x08,0x00,0x00,0x80,0x07,0x00,0x00,0x70,0x00,0x00,0x00,0x00,0x00,0xe0,0x01,
 0x00,0x00,0x1e,0x00,0x00,0x3c,0xdf,0xdd,0x0f,0x3f,0x7c,0x7c,0x00,0x00,0x0a,
 0x00,0x00,0x00,0x00,0x00,0x00,0x00,0xf0,0x00,0x00,0x00,0x00,0x00,0x60,0xf6,
 0xff,0x7f,0xff,0x5f,0xe2,0x83,0x0f,0x00,0x00,0x00,0x80,0x03,0x00,0x00,0x3c,
 0x0f,0x00,0x1c,0x00,0x00,0xc0,0x07,0x00,0x00,0xf0,0x00,0x00,0x00,0x00,0x00,
 0xe0,0x01,0x00,0x00,0x1e,0x00,0x00,0x1c,0x9f,0x7d,0x9f,0x3f,0x7c,0x78,0x08,
 0x00,0x00,0x00,0x00,0x00,0x00,0x00,0x00,0x00,0xf0,0x00,0x00,0x00,0x00,0x00,
 0x40,0xfd,0xfe,0xfd,0x5f,0x3d,0xe1,0x03,0xcf,0xf1,0xf3,0xc0,0x81,0x0f,0x07,
 0x00,0x3c,0x0f,0x06,0x1e,0x1c,0x00,0xc0,0x0f,0x32,0x60,0xf0,0x04,0xc1,0x20,
 0x10,0x00,0xe0,0x01,0x02,0x08,0x1e,0x04,0x00,0x3e,0x0f,0x7c,0x9f,0x3f,0xfc,
 0x78,0x08,0x00,0x00,0x00,0x00,0x00,0x00,0x00,0x00,0x00,0xf0,0x00,0x00,0x00,
 0x00,0x00,0x80,0xfc,0xff,0xff,0x05,0x00,0xe0,0x83,0xef,0xfb,0xff,0xf1,0xc7,
 0xcf,0x0f,0x00,0x34,0x8e,0x1f,0x7e,0x3e,0x00,0xc0,0x8f,0x7f,0xf8,0x71,0xce,
 0xf3,0x79,0x7e,0x00,0xe0,0xc1,0x0f,0x3f,0xbe,0x1f,0x00,0x9e,0x0f,0x3c,0x9b,
 0x7f,0x7c,0xf8,0x08,0x00,0x00,0x00,0x00,0x00,0x00,0x00,0x00,0x00,0xf0,0x00,
 0x00,0x00,0x00,0x00,0xe0,0xe0,0xef,0xff,0x01,0x80,0xe0,0x01,0xcf,0xf3,0xff,
 0xfb,0xe7,0xcf,0x1f,0x00,0x3c,0xcf,0x3f,0x7f,0x7f,0x00,0xe0,0x8f,0x7f,0xfc,
 0xf1,0xde,0xfb,0x79,0x7e,0x00,0xe0,0xe1,0x1f,0x7f,0xde,0x1f,0x00,0x9e,0x0f,
 0x7c,0x9f,0x7f,0xfc,0xf8,0x00,0x00,0x00,0x00,0x00,0x00,0x00,0x00,0x00,0x00,
 0xf0,0x00,0x00,0x00,0x00,0x00,0x00,0xc3,0x7e,0xf7,0x22,0x09,0xe2,0x83,0xcf,
 0xfb,0xde,0x73,0xcf,0xef,0x1d,0x00,0x3c,0xce,0x3d,0x1f,0x77,0x00,0xe0,0x8e,
 0xf7,0xdc,0xf3,0xde,0xfb,0x79,0x6f,0x00,0xe0,0xe1,0x9f,0x7f,0xde,0x1f,0x00,
 0x9e,0x0f,0x7c,0x9f,0x7d,0x7c,0xf8,0x00,0x00,0x00,0x00,0x00,0x00,0x00,0x00,
 0x00,0x00,0xf0,0x00,0x00,0x00,0x00,0x00,0x00,0xa1,0xff,0xbf,0x08,0x20,0xe0,
 0x01,0xef,0xfb,0xde,0x1b,0xcf,0xe3,0x1f,0x00,0x3c,0xcf,0x38,0x1e,0xf1,0x00,
 0xe0,0x8e,0xf7,0xc4,0x71,0xfc,0x79,0x78,0x1e,0x00,0xe0,0xf1,0x9e,0xff,0xde,
 0x17,0x00,0x9f,0x0f,0x7c,0xdf,0x7f,0xfc,0xf8,0x80,0x00,0x00,0x00,0x00,0x00,
 0x00,0x00,0x00,0x00,0xf0,0x00,0x00,0x00,0x00,0x00,0x00,0x83,0xfb,0x7f,0x81,
 0x04,0xe1,0x83,0xcf,0x73,0xde,0xdb,0x87,0xe3,0x1f,0x00,0x3c,0x4f,0x3e,0x0e,
 0x78,0x00,0xe0,0x9e,0xf3,0xc4,0xf3,0xfc,0xf9,0x78,0x3e,0x00,0xe0,0xf1,0xde,
 0xf7,0xbe,0x0f,0x00,0x9e,0x0f,0x5c,0xdf,0xff,0x7c,0xf8,0x80,0x00,0x00,0x00,
 0x00,0x00,0x00,0x00,0x00,0x00,0xf0,0x00,0x00,0x00,0x00,0x00,0x00,0x0c,0xff,
 0xbf,0x50,0x50,0xe4,0x8b,0xef,0x7b,0xdf,0xe3,0xcf,0xe3,0x1f,0x00,0x3c,0x1f,
 0x3f,0x1e,0xfe,0x00,0xe0,0x1f,0xd7,0xf0,0xf3,0xfc,0xf1,0x78,0x3c,0x00,0xe0,
 0xf1,0xbe,0xf7,0x9e,0x0f,0x00,0x9f,0x9f,0x7c,0xdf,0xdf,0x7c,0xf9,0x81,0x00,
 0x00,0x00,0x00,0x00,0x00,0x00,0x00,0x00,0xf0,0x00,0x00,0x00,0x00,0x00,0x00,
 0x00,0xbe,0x3b,0x05,0x05,0xe1,0x03,0xcf,0xfb,0xde,0xf3,0xcf,0xe3,0x15,0x00,
 0x3c,0xcf,0x3f,0x0e,0x7f,0x00,0xf0,0x9f,0xf7,0xfc,0x73,0xf8,0xe0,0x79,0x7c,
 0x00,0xe0,0xf1,0xde,0xf7,0x3e,0x1f,0x00,0x1e,0x1f,0x7c,0xdf,0xff,0xfc,0xf8,
 0x01,0x00,0x00,0x00,0x00,0x00,0x00,0x00,0x00,0x00,0xf0,0x00,0x00,0x00,0x00,
 0x00,0x00,0x00,0xfc,0xdf,0xa8,0xfc,0xc2,0xe3,0xef,0x7b,0xde,0x7b,0x8f,0xe3,
 0x11,0x00,0x3c,0xcf,0x3b,0x0e,0xf7,0x00,0xf0,0x9f,0xf7,0xdc,0xf1,0xf8,0xc8,
 0x79,0x79,0x00,0xe0,0xf1,0xbe,0xbf,0xde,0x3e,0x00,0x1f,0x1f,0x7f,0xff,0xff,
 0x7c,0xf8,0x00,0x00,0x00,0x00,0x00,0x00,0x00,0x00,0x00,0x00,0xf0,0x00,0x00,
 0x00,0x00,0x00,0x00,0x00,0xff,0xbf,0x12,0x7f,0xc0,0x7f,0xcf,0xf3,0xdf,0xfb,
 0xdf,0xcb,0x1b,0x00,0xfc,0xc7,0x7d,0xbe,0xf7,0x01,0x70,0x9c,0x77,0xde,0xf7,
 0xf0,0xdc,0x7b,0xf7,0x00,0xe0,0xe1,0x9f,0xff,0xfe,0x3f,0x00,0x1e,0xff,0xfd,
 0xef,0xfb,0xfc,0xf8,0x01,0x00,0x00,0x00,0x00,0x00,0x00,0x00,0x00,0x00,0xf0,
 0x00,0x00,0x00,0x00,0x00,0x00,0x00,0xfe,0xff,0xa5,0xbe,0xc6,0xff,0xef,0x7b,
 0xde,0xfb,0x9f,0xdf,0x1f,0x00,0xfc,0xc7,0x7f,0x7e,0xff,0x01,0x70,0xbc,0xf6,
 0xfc,0xd7,0xf0,0xf8,0x7b,0x7e,0x00,0xe0,0xe1,0x9f,0x7f,0xde,0x1f,0x00,0x3e,
 0xfe,0xff,0xef,0xfb,0x7c,0xf8,0x00,0x00,0x00,0x00,0x00,0x00,0x00,0x00,0x00,
 0x00,0xf0,0x00,0x00,0x00,0x00,0x00,0x00,0x00,0xf0,0xbf,0xfb,0x57,0x81,0x7f,
 0xcf,0xfb,0xff,0x73,0xdf,0x9f,0x1f,0x00,0xfc,0xc3,0x7f,0x7e,0xbf,0x01,0x70,
 0xbc,0xf3,0xfc,0x77,0x7a,0xfc,0x79,0x7f,0x00,0xe0,0xe1,0x0f,0x7d,0xde,0x1f,
 0x00,0x1e,0xfe,0xff,0xe7,0xf3,0xfd,0xf8,0x00,0x02,0x00,0x00,0x00,0x00,0x00,
 0x00,0x00,0x00,0xf0,0x00,0x00,0x00,0x00,0x00,0x00,0x00,0x00,0xff,0xff,0x2f,
 0x05,0xbe,0xef,0x73,0xde,0xe3,0x0e,0x0f,0x1f,0x00,0x6c,0x00,0x33,0x38,0xee,
 0x00,0x78,0xb8,0xd7,0xb8,0xf3,0x78,0xf1,0x78,0x3e,0x00,0xe0,0x83,0x17,0x3f,
 0xbe,0x1f,0x00,0x3e,0xf8,0x7c,0xe1,0xfb,0xfd,0xf8,0x00,0x06,0x00,0x00,0x00,
 0x00,0x00,0x00,0x00,0x00,0xf0,0x00,0x00,0x00,0x00,0x00,0x00,0x00,0x44,0xf4,
 0xff,0xff,0x07,0x00,0x00,0x00,0x00,0x08,0x00,0x40,0x00,0x00,0x00,0x00,0x00,
 0x00,0x00,0x00,0x00,0x02,0x00,0x00,0x00,0x78,0x00,0x00,0x00,0x00,0x00,0x00,
 0x00,0x00,0x00,0x00,0x00,0xbe,0x00,0x00,0x00,0x00,0x00,0xf8,0x00,0x06,0x00,
 0x00,0x00,0x00,0x00,0x00,0x00,0x00,0xf0,0x00,0x00,0x00,0x00,0x00,0x00,0x00,
 0x00,0x09,0xf8,0xff,0x07,0x00,0x00,0x88,0x00,0x80,0x24,0x00,0x00,0x00,0x00,
 0x08,0x48,0x00,0x00,0x00,0x00,0x00,0x00,0x00,0x00,0x3c,0x08,0x00,0x00,0x00,
 0x00,0x00,0x90,0xa0,0x00,0x00,0x00,0x3c,0x00,0x00,0x09,0x00,0x00,0x7c,0x00,
 0x02,0x00,0x00,0x00,0x00,0x00,0x00,0x00,0x00,0xf0,0x00,0x00,0x00,0x00,0x00,
 0x00,0x00,0x20,0xa4,0xf5,0xff,0x07,0x00,0x00,0x00,0x48,0x22,0x00,0x01,0x24,
 0x00,0x00,0x41,0x00,0x02,0x90,0x00,0x00,0x10,0x40,0x00,0x24,0xbc,0x00,0x00,
 0x40,0x00,0x00,0x08,0x04,0x04,0x92,0x24,0x00,0x3c,0x02,0x00,0x20,0xa9,0x00,
 0x7c,0x02,0x06,0x00,0x00,0x00,0x00,0x00,0x00,0x00,0x00,0xf0,0x00,0x00,0x00,
 0x00,0x00,0x00,0x00,0x89,0x52,0xaa,0xfe,0x07,0x00,0x48,0x21,0x02,0x00,0x12,
 0x20,0x00,0x00,0x00,0x00,0x20,0x00,0x00,0x00,0x00,0x02,0x09,0x00,0x01,0x3c,
 0x80,0x44,0x08,0x00,0x00,0x00,0x40,0x20,0x00,0x00,0x00,0x78,0x20,0x40,0x02,
 0x00,0x20,0x3c,0x00,0x00,0x00,0x00,0x00,0x00,0x00,0x00,0x00,0x00,0xf0,0x00,
 0x00,0x00,0x00,0x00,0x00,0x00,0x20,0x50,0x55,0xe5,0x07,0x00,0x00,0x00,0x80,
 0x00,0x00,0x00,0x08,0x00,0x00,0x02,0x01,0x00,0x40,0x00,0x00,0x00,0x00,0x11,
 0x00,0x3c,0x00,0x00,0x00,0x00,0x00,0x20,0x08,0x80,0x00,0x00,0x00,0x78,0x80,
 0x00,0x00,0x04,0x02,0x3e,0x00,0x00,0x00,0x00,0x00,0x00,0x00,0x00,0x00,0x00,
 0xf0,0x00,0x00,0x00,0x00,0x00,0x00,0x00,0x80,0xaa,0xaa,0xda,0x07,0x10,0x00,
 0x00,0x00,0x08,0x08,0x00,0x00,0x00,0x00,0x00,0x04,0x20,0x00,0x00,0x00,0x08,
 0x00,0x00,0x20,0x1e,0x02,0x00,0x00,0x00,0x00,0x00,0x00,0x00,0x88,0x08,0x00,
 0xf0,0x00,0x88,0x48,0x20,0x00,0x1f,0x00,0x60,0x00,0x00,0x00,0x00,0x00,0x00,
 0x00,0x00,0xf0,0x00,0x00,0x00,0x00,0x00,0x00,0x20,0x24,0x84,0x54,0xd5,0x06,
 0x80,0x00,0x00,0x08,0x40,0x40,0x04,0x00,0x00,0x00,0x00,0x80,0x80,0x00,0x00,
 0x00,0x00,0x00,0x00,0x02,0x00,0x00,0x00,0x00,0x00,0x00,0x00,0x00,0x00,0x00,
 0x00,0x00,0x00,0x00,0x00,0x00,0x00,0x00,0x00,0x00,0x60,0x01,0x00,0x00,0x00,
 0x00,0x00,0x00,0x00,0xf0,0x00,0x00,0x00,0x00,0x00,0x00,0x80,0x80,0xb2,0xaa,
 0xaa,0xff,0xff,0xff,0xff,0xff,0x57,0xab,0xf5,0x77,0xab,0xfd,0xde,0xba,0x5e,
 0xff,0xff,0xff,0xff,0xff,0xff,0xff,0xff,0xff,0xff,0xff,0xff,0xff,0xdf,0xfb,
 0xef,0xb6,0xed,0xfe,0xaa,0x5b,0x25,0x81,0x01,0x16,0x00,0x00,0x60,0x00,0x00,
 0x00,0x00,0x00,0x00,0x00,0x00,0xf0,0x00,0x00,0x00,0x00,0x00,0x00,0x00,0x20,
 0x88,0xaa,0xaa,0xea,0xff,0xff,0xff,0xbf,0xaa,0x56,0x95,0x54,0x55,0xa5,0x52,
 0xd5,0x4a,0xfd,0xff,0xff,0xff,0xff,0xff,0xff,0xff,0xff,0xff,0xff,0xff,0xff,
 0x53,0x95,0x98,0xaa,0xaa,0x6a,0xb7,0xa4,0x12,0xa4,0x05,0x00,0x00,0x00,0x00,
 0x01,0x00,0x00,0x00,0x00,0x00,0x00,0x00,0xf0,0x00,0x00,0x00,0x00,0x00,0x00,
 0x00,0x08,0xa5,0x54,0x55,0xad,0xfa,0xff,0xff,0xff,0x5f,0x55,0x55,0x55,0x55,
 0x95,0xaa,0xaa,0xb2,0xf6,0xff,0xff,0xff,0xff,0xff,0xff,0xff,0xff,0xff,0xff,
 0xff,0xff,0x2a,0x55,0x67,0x55,0x55,0x55,0xaf,0xaa,0x94,0x00,0x0a,0x00,0x00,
 0x00,0x40,0x06,0x00,0x00,0x00,0x00,0x00,0x00,0x00,0xf0,0x00,0x00,0x00,0x00,
 0x00,0x00,0x00,0x40,0x92,0xaa,0xaa,0x52,0xf6,0xff,0xff,0xff,0xf7,0xaf,0xaa,
 0xaa,0xaa,0x6a,0x55,0x55,0x55,0xd5,0xff,0xff,0xef,0xff,0xff,0xff,0xff,0xff,
 0xff,0xff,0xff,0xff,0x55,0x55,0xa9,0xaa,0xaa,0xaa,0x5e,0x55,0x42,0x08,0x38,
 0x00,0x00,0x78,0x00,0x04,0x00,0x00,0x00,0x00,0x00,0x00,0x00,0xf0,0x00,0x00,
 0x00,0x00,0x00,0x00,0x00,0x02,0x28,0x91,0xaa,0xaa,0xfa,0xff,0xff,0xdb,0xfe,
 0xbb,0xaa,0xaa,0xaa,0x2a,0x55,0x95,0xaa,0x54,0xfe,0xb5,0x92,0xff,0xff,0xff,
 0xff,0xff,0xff,0xff,0xff,0x7f,0x55,0x55,0x95,0xaa,0xaa,0xaa,0xaa,0x92,0x14,
 0xfc,0x38,0x00,0x00,0x4e,0x00,0x00,0x00,0x00,0x00,0x00,0x00,0x00,0x00,0xf0,
 0x00,0x00,0x00,0x00,0x00,0x00,0x00,0x28,0x85,0x54,0x49,0xaa,0x6a,0xf7,0xbf,
 0xff,0xdf,0x6f,0x55,0x4a,0x55,0xa9,0x92,0x52,0x4a,0xa5,0x2a,0x55,0x55,0xda,
 0xff,0xff,0xff,0xff,0xff,0xff,0xff,0x3f,0x55,0x49,0xaa,0x54,0x95,0x54,0x49,
 0x4a,0x42,0x71,0x28,0x00,0x00,0x5b,0x00,0x00,0x00,0x00,0x00,0x00,0x00,0x00,
 0x00,0xf0,0x00,0x00,0x00,0x00,0x00,0x80,0x01,0x00,0x50,0xa5,0x54,0x49,0xfd,
 0x7f,0xfb,0xff,0xff,0x7e,0x49,0xa9,0x24,0xa5,0xaa,0x54,0xa9,0x2a,0x95,0x94,
 0x54,0xa5,0xff,0xff,0xff,0xff,0xff,0xff,0xff,0x5f,0x29,0x55,0xa9,0x4a,0x52,
 0x25,0xa5,0x24,0x11,0xc0,0x67,0x00,0x80,0x57,0x00,0x00,0x00,0x00,0x00,0x00,
 0x00,0x00,0x00,0xf0,0x00,0x00,0x00,0x00,0x00,0xf0,0xff,0x00,0x09,0x12,0x92,
 0x2a,0xff,0xff,0xff,0xbd,0xfb,0x5b,0x25,0x25,0x92,0x14,0x49,0x12,0x15,0x91,
 0x44,0x4a,0x8a,0x52,0xff,0xff,0xff,0xff,0xff,0xff,0xff,0x42,0x45,0x2a,0x25,
 0x22,0x89,0x92,0x54,0x92,0x08,0x80,0x4b,0x00,0xf8,0x5a,0x00,0x00,0x00,0x00,
 0x00,0x00,0x00,0x00,0x00,0xf0,0x00,0x00,0x00,0x00,0x00,0x70,0xf8,0xff,0xa2,
 0x48,0x49,0xa0,0xff,0xee,0xdf,0xf7,0xdf,0xff,0x92,0x48,0x49,0xa2,0x24,0xa5,
 0x40,0x4a,0x29,0x21,0x51,0xc8,0xff,0xff,0xff,0xff,0xff,0xff,0x7f,0x29,0x28,
 0x41,0x92,0x94,0x54,0x48,0x09,0x25,0x42,0x02,0x5e,0x00,0x56,0x15,0x10,0x00,
 0x00,0x00,0x00,0x00,0x00,0x00,0x00,0xf0,0x00,0x00,0x00,0x00,0x00,0xf0,0x00,
 0xfe,0xff,0x22,0x92,0xca,0xef,0x7f,0x7b,0xdf,0x7d,0x5f,0x5f,0x92,0xa4,0x14,
 0x92,0x48,0xaa,0x24,0x92,0x94,0x24,0xa5,0xff,0xff,0xff,0xff,0xff,0xff,0x2e,
 0x45,0x45,0x2a,0x49,0x49,0x22,0x25,0x52,0x88,0x10,0x00,0x78,0x00,0xde,0x0a,
 0x00,0x00,0x60,0x00,0x00,0x00,0x00,0x00,0x00,0xf0,0x00,0x00,0x00,0x00,0x00,
 0xf0,0x00,0xc5,0xff,0x9f,0x44,0xe4,0xbf,0xfb,0xff,0xff,0xf7,0x77,0xeb,0x45,
 0x12,0xa2,0x48,0x12,0x11,0x90,0x44,0x22,0x89,0xc8,0x7f,0xdf,0xfd,0xff,0xff,
 0xf7,0xaf,0x90,0x10,0x81,0x10,0x22,0x89,0x88,0x04,0x21,0x42,0x00,0xa8,0x00,
 0x54,0x0d,0x2c,0x00,0x20,0xc0,0x00,0x00,0x00,0x00,0x00,0xf0,0x00,0x00,0x00,
 0x00,0x00,0xf0,0xee,0x0f,0xf0,0x5f,0x10,0xa1,0xfb,0xdf,0xef,0x7b,0xdf,0xfd,
 0x7f,0x29,0x80,0x08,0x02,0x40,0x44,0x05,0x20,0x08,0x20,0x82,0xff,0xff,0x77,
 0xef,0xdf,0xff,0x17,0x0a,0x44,0x28,0x84,0x08,0x20,0x22,0x50,0x04,0x00,0x08,
 0x70,0x00,0xa8,0x05,0x06,0x00,0xc0,0xe0,0x01,0x00,0x00,0x00,0x00,0xf0,0x00,
 0x00,0x00,0x00,0x00,0xf0,0xb6,0x0c,0x00,0x3e,0x42,0xc8,0xfe,0x7e,0xbd,0xde,
 0x7d,0xdf,0xda,0xd6,0x2b,0xa0,0x50,0x15,0x11,0xa0,0x8a,0x42,0x85,0x50,0xfe,
 0xff,0xff,0xbf,0x7d,0xdf,0x89,0xa0,0x12,0x82,0x22,0xa2,0x8a,0x88,0x04,0x21,
 0x09,0x00,0xa0,0x01,0x78,0x0f,0x16,0x80,0xc7,0x7e,0xfe,0x00,0x00,0x00,0x00,
 0xf0,0x00,0x00,0x00,0x00,0x00,0xf0,0xda,0x0e,0x8c,0x98,0x08,0xe2,0xaf,0xeb,
 0xf7,0xfb,0xf7,0xf7,0xf7,0xff,0x45,0x05,0x04,0x40,0x00,0x09,0x00,0x10,0x10,
 0x04,0xf0,0xfb,0xff,0xff,0xff,0xff,0x00,0x04,0x80,0x10,0x08,0x00,0x00,0x00,
 0x10,0x04,0x20,0x00,0xc0,0x02,0x00,0x00,0x08,0x00,0x00,0xb4,0x7f,0x01,0x00,
 0x00,0x00,0xf0,0x00,0x00,0x00,0x00,0x00,0xe0,0xb8,0x42,0x1b,0x18,0x20,0xc0,
 0xfb,0xbf,0xdf,0xdf,0xbe,0xba,0x5e,0x55,0xb7,0x10,0x00,0x00,0x44,0x00,0x20,
 0x02,0x40,0x10,0xe1,0xef,0xff,0xfd,0xff,0x7f,0x48,0x10,0x10,0x42,0x20,0x11,
 0x44,0x24,0x41,0x10,0x80,0x00,0x00,0x02,0x00,0x00,0x20,0x00,0x00,0x00,0xff,
 0x04,0x14,0x00,0x00,0xf0,0x00,0x00,0x00,0x00,0x00,0xe0,0xac,0xa0,0x7c,0x18,
 0x00,0xe4,0x7e,0xfb,0x7a,0xed,0xeb,0xef,0xf7,0xff,0x56,0x41,0x49,0x12,0x00,
 0x44,0x09,0x88,0x04,0x40,0xb4,0xff,0xbd,0xff,0x7d,0x7b,0x02,0x40,0x02,0x00,
 0x01,0x80,0x00,0x01,0x00,0x80,0x00,0x00,0x00,0x28,0x00,0x00,0x00,0x00,0x00,
 0x00,0xbf,0x52,0x0e,0x00,0x00,0xf0,0x00,0x00,0x00,0x00,0x00,0xf0,0xf4,0x20,
 0xee,0x1b,0x82,0x80,0xdb,0xde,0xdf,0x7f,0xdf,0xba,0xba,0xaa,0xbb,0x00,0x00,
 0x00,0x11,0x00,0x00,0x00,0x00,0x01,0xe0,0xff,0xf7,0xdf,0xef,0xef,0x00,0x01,
 0x40,0x00,0x00,0x04,0x08,0x00,0x04,0x00,0x00,0x00,0x00,0xd0,0x0e,0x00,0x00,
 0x00,0x00,0x80,0xaf,0x04,0x00,0x00,0x00,0xf0,0x00,0x00,0x00,0x00,0x00,0xf0,
 0x5c,0x00,0xbb,0x39,0x00,0x00,0xfe,0xeb,0xb6,0xd5,0xf6,0xef,0xdf,0xff,0xee,
 0x02,0x00,0x00,0x40,0x00,0x40,0x00,0x00,0x00,0xc0,0xbd,0xff,0xfb,0xff,0x7f,
 0x10,0x00,0x00,0x08,0x20,0x00,0x00,0x20,0x00,0x01,0x00,0x00,0x00,0x00,0x50,
 0xa0,0x00,0x00,0x00,0x00,0x7a,0x78,0x00,0x00,0x00,0xf0,0x00,0x00,0x00,0x00,
 0x00,0x60,0x34,0x70,0xed,0x19,0x00,0x00,0xde,0xbe,0x7d,0xbf,0xbb,0xba,0xea,
 0xaa,0x5b,0x00,0x00,0x00,0x00,0x01,0x00,0x20,0x00,0x00,0xc0,0xf7,0x7f,0xff,
 0xfd,0x7d,0x01,0x00,0x00,0x00,0x00,0x00,0x00,0x00,0x00,0x00,0x00,0x00,0x00,
 0x00,0x00,0x00,0x40,0x03,0x00,0x00,0x00,0xe0,0x01,0x00,0x00,0xf0,0x00,0x00,
 0x00,0x00,0x00,0x60,0x38,0x50,0x5f,0x18,0x00,0x00,0xf4,0xef,0xd7,0xeb,0xde,
 0xdf,0x7f,0xf7,0x56,0x00,0x80,0x00,0x00,0x08,0x00,0x80,0x10,0x00,0xc0,0xff,
 0xf6,0xb7,0xb7,0xf7,0x04,0x08,0x02,0x00,0x02,0x20,0x00,0x00,0x00,0x00,0x00,
 0x00,0x00,0x00,0x00,0x00,0x00,0x00,0x00,0x00,0x00,0x00,0x00,0x00,0x00,0xf0,
 0x00,0x00,0x00,0x00,0x00,0x60,0x0c,0xb8,0xf5,0x18,0x00,0x00,0xe0,0x7a,0x7d,
 0xbd,0xab,0xea,0xaa,0xad,0x0d,0x00,0x00,0x08,0x00,0x00,0x00,0x00,0x00,0x04,
 0x00,0xff,0xdf,0xff,0xff,0xff,0x02,0x00,0x00,0x00,0x00,0x00,0x40,0x00,0x00,
 0x00,0x00,0x00,0x00,0x00,0x00,0x00,0x00,0x00,0x00,0x00,0x20,0x00,0x00,0x00,
 0x00,0xf0,0x00,0x00,0x00,0x00,0x00,0x60,0x08,0xa8,0xee,0x18,0x00,0x00,0xc0,
 0xaf,0xd7,0x6f,0xfd,0x5d,0xf7,0xde,0x06,0x00,0x02,0x00,0x00,0x40,0x00,0x00,
 0x00,0x00,0xc0,0xb7,0xff,0xdd,0xdd,0xdd,0x05,0x40,0x00,0x00,0x00,0x00,0x00,
 0x00,0x00,0x00,0x00,0x00,0x00,0x00,0x00,0x00,0x00,0x00,0x50,0x01,0x70,0x00,
 0x00,0x00,0x00,0xf0,0x00,0x00,0x00,0x00,0x00,0x60,0x08,0xf8,0x7b,0x19,0x00,
 0x00,0x40,0xf5,0xbd,0xda,0x57,0xb7,0xad,0x75,0x01,0x00,0x00,0x00,0x00,0x00,
 0x00,0x00,0x00,0x00,0xe0,0xff,0x7b,0xff,0xff,0xf7,0x00,0x40,0x01,0x00,0x00,
 0x00,0x00,0x00,0x00,0x00,0x00,0x00,0x00,0x00,0x00,0x00,0x00,0x00,0x5e,0x04,
 0x18,0x00,0x00,0x00,0x00,0xf0,0x00,0x00,0x00,0x00,0x00,0x60,0x10,0xb8,0x5e,
 0x19,0x00,0x00,0x80,0x5f,0xeb,0xbd,0xfa,0xed,0xf6,0xae,0x03,0x00,0x00,0x00,
 0x00,0x00,0x00,0x00,0x00,0x00,0xf0,0xfd,0xee,0xdb,0x6d,0xff,0x05,0x60,0x01,
 0x00,0x00,0x00,0x00,0x00,0x00,0x00,0x00,0x00,0x00,0x00,0x00,0x00,0x00,0x88,
 0x57,0x01,0x58,0x00,0x00,0x00,0x00,0xf0,0x00,0x00,0x00,0x00,0x00,0xe0,0x10,
 0xec,0x6b,0x1c,0x00,0x00,0x00,0xfa,0x5e,0xeb,0x57,0xbb,0xad,0xf5,0x00,0x00,
 0x00,0x00,0x00,0x00,0x00,0x00,0x00,0x00,0xe0,0xd7,0xff,0x7f,0xff,0xbd,0x00,
 0xfe,0x00,0x00,0x00,0x00,0x00,0x00,0x00,0x00,0x00,0x00,0x00,0x00,0x00,0x00,
 0x80,0xaf,0x95,0x00,0x68,0x00,0x00,0x00,0x00,0xf0,0x00,0x00,0x00,0x00,0x00,
 0xe0,0x00,0xb8,0x69,0x1c,0x00,0x00,0x00,0xd0,0xeb,0x5e,0xdd,0xd6,0x76,0x5b,
 0x01,0x00,0x00,0x00,0x00,0x00,0x00,0x00,0x00,0x00,0xb8,0xff,0x7f,0xff,0xdd,
 0x6f,0x80,0x5f,0x00,0x00,0x00,0x00,0x00,0x00,0x00,0x00,0x00,0x00,0x00,0x00,
 0x00,0x00,0x70,0xa5,0x54,0x15,0x16,0x01,0x00,0x00,0x00,0xf0,0x00,0x00,0x00,
 0x00,0x00,0xe0,0x40,0xf8,0x28,0x1c,0x00,0x00,0x00,0x40,0xbf,0xeb,0xb6,0x6d,
 0xab,0xad,0x01,0x00,0x00,0x00,0x00,0x00,0x00,0x00,0x00,0x00,0xf0,0x7d,0xdb,
 0xeb,0x7f,0x0b,0x80,0xbf,0x00,0x00,0x00,0x00,0x00,0x00,0x00,0x00,0x00,0x00,
 0x00,0x00,0x00,0x00,0xf0,0xb5,0xaa,0x24,0x5e,0x01,0x00,0x00,0x00,0xf0,0x00,
 0x00,0x00,0x00,0x00,0xc0,0x00,0xe0,0x21,0x1c,0x00,0x00,0x00,0x00,0x6a,0xbd,
 0x6d,0xbb,0xdd,0x76,0x01,0x00,0x00,0x00,0x00,0x00,0x00,0x00,0x00,0x00,0xe0,
 0xdf,0x7f,0x7f,0xf7,0x07,0x80,0x7f,0x00,0x00,0x00,0x00,0x00,0x00,0x00,0x00,
 0x00,0x00,0x00,0x00,0x00,0x00,0x58,0x4a,0xa5,0x52,0xa1,0x00,0x00,0x00,0x00,
 0xf0,0x00,0x00,0x00,0x00,0x00,0x40,0x20,0xe1,0x00,0x1c,0x00,0x00,0x00,0x00,
 0xbe,0xd7,0xb6,0x6d,0x6b,0xab,0x00,0x00,0x00,0x00,0x00,0x00,0x00,0x00,0x00,
 0x00,0x60,0xfb,0xf6,0xf7,0x5f,0x00,0x00,0x1b,0x00,0x00,0x00,0x00,0x00,0x00,
 0x00,0x00,0x00,0x00,0x00,0x00,0x00,0x00,0xae,0xaa,0x54,0x2a,0x55,0x01,0x00,
 0x00,0x00,0xf0,0x00,0x00,0x00,0x00,0x00,0x40,0x00,0xe1,0x80,0x1c,0x00,0x00,
 0x00,0x00,0xd6,0x7a,0xdb,0xb6,0xbd,0xdd,0x00,0x00,0x00,0x00,0x00,0x00,0x00,
 0x00,0x00,0x00,0xc0,0xef,0xff,0xbe,0x7b,0x00,0xc0,0x2f,0x00,0x00,0x00,0x00,
 0x00,0x00,0x00,0x00,0x00,0x00,0x00,0x00,0x00,0xfa,0x57,0x55,0x55,0x55,0x95,
 0x04,0x00,0x00,0x00,0xf0,0x00,0x00,0x00,0x00,0x00,0x40,0x40,0xc0,0x60,0x1c,
 0x00,0x00,0x00,0x00,0x7c,0xad,0x6d,0xdb,0xd6,0x6a,0x00,0x00,0x00,0x00,0x00,
 0x00,0x00,0x00,0x00,0x00,0x80,0x7f,0xdb,0xfb,0x3e,0x00,0xe0,0x16,0x00,0x00,
 0x00,0x00,0x00,0x00,0x00,0x00,0x00,0x00,0x00,0x00,0xf0,0x57,0x55,0x55,0xa5,
 0x24,0x49,0x05,0x00,0x00,0x00,0xf0,0x00,0x00,0x00,0x00,0x00,0x40,0x80,0xe0,
 0x00,0x1d,0x00,0x00,0x00,0x00,0xac,0xd7,0xb6,0x6d,0x6b,0x37,0x00,0x00,0x00,
 0x00,0x00,0x00,0x00,0x00,0x00,0x00,0x00,0xef,0xff,0xef,0x6f,0x00,0xc0,0x0b,
 0x00,0x00,0x00,0x00,0x00,0x00,0x00,0x00,0x00,0x00,0x00,0x00,0xf0,0x55,0x55,
 0x2a,0x95,0xaa,0x54,0x12,0x00,0x00,0x00,0xf0,0x00,0x00,0x00,0x00,0x00,0x00,
 0x80,0xe0,0x00,0x1c,0x00,0x00,0x00,0x00,0xf6,0xba,0xdd,0xb6,0xb5,0x00,0x00,
 0x00,0x00,0x00,0x00,0x00,0x00,0x00,0x00,0x00,0x80,0xbd,0xdb,0xbe,0xbb,0x00,
 0xe0,0x0b,0x00,0x00,0x00,0x00,0x00,0x00,0x00,0x00,0x00,0x00,0x00,0x00,0x70,
 0x55,0x55,0x55,0x55,0x55,0x25,0x49,0x00,0x00,0x00,0xf0,0x00,0x00,0x00,0x00,
 0x00,0x00,0x40,0x60,0x80,0x1d,0x00,0x00,0x00,0x00,0x5c,0xef,0x76,0xdb,0x1e,
 0x00,0x00,0x00,0x00,0x00,0x00,0x00,0x00,0x00,0x00,0x00,0x80,0xff,0xfe,0x7b,
 0x6f,0x00,0xc0,0x02,0x00,0x00,0x00,0x00,0x00,0x00,0x00,0x00,0x00,0x00,0x00,
 0x00,0x5c,0x55,0x55,0x55,0x55,0x49,0x55,0x25,0x00,0x00,0x00,0xf0,0x00,0x00,
 0x00,0x00,0x00,0x00,0x40,0x60,0x40,0x1f,0x00,0x00,0x00,0x00,0xee,0x5a,0xab,
 0x6d,0x0b,0x00,0x00,0x00,0x00,0x00,0x00,0x00,0x00,0x00,0x00,0x00,0x00,0xef,
 0xb7,0xff,0x07,0x00,0x00,0x00,0x00,0x00,0x00,0x00,0x00,0x00,0x00,0x00,0x00,
 0x00,0x00,0x00,0xb8,0xaa,0xaa,0xaa,0x54,0xaa,0xa4,0x94,0x00,0x00,0x00,0xf0,
 0x00,0x00,0x00,0x00,0x00,0x00,0x00,0x20,0xc0,0x1f,0x00,0x00,0x00,0x00,0xb4,
 0xed,0x7d,0xab,0x0d,0x00,0x00,0x00,0x00,0x00,0x00,0x00,0x00,0x00,0x00,0x00,
 0x00,0xbe,0xff,0xdb,0x0d,0x00,0x00,0x00,0x00,0x00,0x00,0x00,0x00,0x00,0x00,
 0x00,0x00,0x00,0x00,0x00,0x54,0x55,0x55,0xa5,0xaa,0x4a,0x95,0x52,0x00,0x00,
 0x00,0xf0,0x00,0x00,0x00,0x00,0x00,0x00,0x00,0x00,0xa0,0x1e,0x00,0x00,0x00,
 0x00,0xdc,0x56,0xab,0xdd,0x0a,0x00,0x00,0x00,0x00,0x00,0x00,0x00,0x00,0x00,
 0x00,0x00,0x00,0xfb,0xdd,0xfe,0x07,0x00,0x00,0x00,0x00,0x00,0x00,0x00,0x00,
 0x00,0x00,0x00,0x00,0x00,0x00,0x00,0xa8,0xaa,0xaa,0xaa,0x4a,0x29,0x55,0xaa,
 0x00,0x00,0x00,0xf0,0x00,0x00,0x00,0x00,0x00,0x00,0x06,0x00,0xc0,0x1e,0x00,
 0x00,0x00,0x00,0x76,0xfb,0x76,0x6b,0x13,0x00,0x00,0x00,0x00,0x00,0x00,0x00,
 0x00,0x00,0x00,0x00,0x00,0x7e,0xff,0x6f,0x03,0x00,0x00,0x00,0x00,0x00,0x00,
 0x00,0x00,0x00,0x00,0x00,0x00,0x00,0x00,0x00,0x58,0x55,0x25,0x55,0xa9,0xaa,
 0x52,0x85,0x00,0x00,0x00,0xf0,0x00,0x00,0x00,0x00,0x00,0x00,0x1c,0x00,0x00,
 0x1e,0x00,0x00,0x00,0x00,0xdc,0xad,0xad,0xbd,0x09,0x00,0x00,0x00,0x00,0x00,
 0x00,0x00,0x00,0x00,0x00,0x00,0x00,0xfc,0x75,0xfb,0x01,0x00,0x00,0x00,0x00,
 0x00,0x00,0x00,0x00,0x00,0x00,0x00,0x00,0x00,0x00,0x00,0x58,0x55,0x55,0x55,
 0x55,0x55,0x4a,0x29,0x00,0x00,0x00,0xf0,0x00,0x00,0x00,0x00,0x00,0x00,0xf0,
 0x00,0x00,0x1e,0x00,0x00,0x00,0x00,0xb4,0xd6,0x76,0x6b,0x01,0x00,0x00,0x00,
 0x00,0x00,0x00,0x00,0x00,0x00,0x00,0x00,0x00,0xe0,0xff,0x1f,0x00,0x00,0x00,
 0x00,0x00,0x00,0x00,0x00,0x00,0x00,0x00,0x00,0x00,0x00,0x00,0x00,0xa8,0xaa,
 0xaa,0xae,0x2a,0x49,0x29,0x05,0x00,0x00,0x00,0xf0,0x00,0x00,0x00,0x00,0x00,
 0x00,0xc0,0x07,0x00,0x1f,0x00,0x00,0x00,0x00,0xd8,0xbb,0xad,0x5d,0x00,0x00,
 0x00,0x00,0x00,0x00,0x00,0x00,0x00,0x00,0x00,0x00,0x00,0xe0,0xdf,0x0e,0x00,
 0x00,0x00,0x00,0x00,0x00,0x00,0x00,0x00,0x00,0x00,0x00,0x00,0x00,0x00,0x00,
 0x54,0x55,0x3d,0xe0,0xaa,0xaa,0xa6,0x04,0x00,0x00,0x00,0xf0,0x00,0x00,0x00,
 0x00,0x00,0x00,0x00,0x3f,0x00,0x1f,0x00,0x00,0x00,0x00,0xb8,0x6e,0xf7,0xb6,
 0x00,0x00,0x00,0x00,0x00,0x00,0x00,0x00,0x00,0x00,0x00,0x00,0x00,0xe0,0xf6,
 0x17,0x00,0x00,0x00,0x00,0x00,0x00,0x00,0x00,0x00,0x00,0x00,0x00,0x00,0x00,
 0x00,0x00,0xa8,0xaa,0x02,0x80,0xa9,0x2a,0x99,0x02,0x00,0x00,0x08,0xf0,0x00,
 0x00,0x00,0x00,0x00,0x1e,0x00,0xf8,0x01,0x1f,0x00,0x00,0x00,0x00,0x78,0xdb,
 0x5a,0x2b,0x00,0x00,0x00,0x00,0x00,0x00,0x00,0x00,0x00,0x00,0x00,0x00,0x00,
 0xe0,0x7f,0x01,0x00,0x00,0x00,0x00,0x00,0x00,0x00,0x00,0x00,0x00,0x00,0x00,
 0x00,0x00,0x00,0x00,0xbe,0x25,0x00,0x80,0x55,0xa9,0x54,0x00,0x00,0x00,0x5a,
 0xf0,0x00,0x00,0x00,0x00,0x00,0x7c,0x00,0xe0,0x07,0x1f,0x00,0x00,0x00,0x00,
 0xec,0x75,0x6f,0x01,0x00,0x00,0x00,0x00,0x00,0x00,0x00,0x00,0x00,0x00,0x00,
 0x00,0x00,0x00,0x00,0x00,0x00,0x00,0x00,0x00,0x00,0x00,0x00,0x00,0x00,0x00,
 0x00,0x00,0x00,0x00,0x00,0x00,0x0c,0x00,0x00,0x00,0x24,0x55,0x25,0x00,0x00,
 0x00,0x18,0xf0,0x00,0x00,0x00,0x00,0x00,0xf8,0x01,0x80,0x3f,0x1f,0x00,0x00,
 0x00,0x00,0xb8,0xde,0xda,0x06,0x00,0x00,0x00,0x00,0x00,0x00,0x00,0x00,0x00,
 0x00,0x00,0x00,0x00,0x00,0x00,0x00,0x00,0x00,0x00,0x00,0x00,0x00,0x00,0x00,
 0x00,0x00,0x00,0x00,0x00,0x00,0x00,0x00,0x00,0x00,0x00,0x80,0xaa,0x4a,0x05,
 0x00,0x00,0x00,0x00,0xf0,0x00,0x00,0x00,0x00,0x00,0xc0,0x07,0x00,0x7e,0x1f,
 0x00,0x00,0x00,0x00,0xdc,0xab,0x6d,0x03,0x00,0x00,0x00,0x00,0x00,0x00,0x00,
 0x00,0x00,0x00,0x00,0x00,0x00,0x00,0x00,0x00,0x00,0x00,0x00,0x00,0x00,0x00,
 0x00,0x00,0x00,0x00,0x00,0x00,0x00,0x00,0x00,0x00,0x00,0x00,0x00,0x00,0xb0,
 0xaa,0x02,0x00,0x00,0x00,0x07,0xf0,0x00,0x00,0x00,0x00,0x00,0x80,0x1f,0x00,
 0x70,0x1e,0x00,0x00,0x00,0x00,0x6e,0x7d,0xdb,0x02,0x00,0x00,0x00,0x00,0x00,
 0x00,0x00,0x00,0x00,0x00,0x00,0x00,0x00,0x00,0x00,0x00,0x00,0x00,0x00,0x00,
 0x00,0x00,0x00,0x00,0x00,0x00,0x00,0x00,0x00,0x00,0x00,0x00,0x00,0x00,0x00,
 0x00,0x70,0x55,0x03,0x00,0x00,0x80,0x01,0xf0,0x00,0x00,0x00,0x00,0x00,0x00,
 0xfc,0x00,0xc0,0x0e,0x00,0x00,0x00,0x00,0xb8,0xd7,0x4d,0x01,0x00,0x00,0x00,
 0x00,0x00,0x00,0x00,0x00,0x00,0x00,0x00,0x00,0x00,0x00,0x00,0x00,0x00,0x00,
 0x00,0x00,0x00,0x00,0x00,0x00,0x00,0x00,0x00,0x00,0x00,0x00,0x00,0x00,0x00,
 0x00,0x00,0x00,0x40,0x19,0x00,0x00,0x00,0xc0,0x00,0xf0,0x00,0x00,0x00,0x00,
 0x00,0x00,0xf0,0x03,0x00,0x07,0x00,0x00,0x00,0x00,0xf8,0x7a,0x07,0x00,0x00,
 0x00,0x00,0x00,0x00,0x00,0x00,0x00,0x00,0x00,0x00,0x00,0x00,0x00,0x00,0x00,
 0x00,0x00,0x00,0x00,0x00,0x00,0x00,0x00,0x00,0x00,0x00,0x00,0x00,0x00,0x00,
 0x00,0x00,0x00,0x00,0x00,0x00,0x00,0x00,0x00,0x00,0x60,0x00,0xf0,0x00,0x00,
 0x00,0x00,0x00,0x00,0xc0,0x0f,0x00,0x08,0x00,0x00,0x00,0x00,0x68,0xaf,0x01,
 0x00,0x00,0x00,0x00,0x00,0x00,0x00,0x00,0x00,0x00,0x00,0x00,0x00,0x00,0x00,
 0x00,0x00,0x00,0x00,0x00,0x00,0x00,0x00,0x00,0x00,0x00,0x00,0x00,0x00,0x00,
 0x00,0x00,0x00,0x00,0x00,0x00,0x00,0x00,0x05,0x00,0x00,0x00,0x00,0x00,0xf0,
 0x00,0x00,0x00,0x00,0x00,0x00,0x00,0x3f,0x00,0x00,0x00,0x00,0x00,0x00,0x94,
 0xda,0x02,0x00,0x00,0x00,0x00,0x00,0x00,0x00,0x00,0x00,0x00,0x00,0x00,0x00,
 0x00,0x00,0x00,0x00,0x00,0x00,0x00,0x00,0x00,0x00,0x00,0x00,0x00,0x00,0x00,
 0x00,0x00,0x00,0x00,0x00,0x00,0x00,0x00,0x00,0xc0,0x01,0x00,0x00,0x00,0x00,
 0x00,0xf0,0x00,0x00,0x00,0x00,0x00,0x00,0x00,0xf8,0x01,0x00,0x00,0x00,0x00,
 0x00,0xa0,0x77,0x03,0x00,0x00,0x00,0x00,0x00,0x00,0x00,0x00,0x00,0x00,0x00,
 0x00,0x00,0x00,0x00,0x00,0x00,0x00,0x00,0x00,0x00,0x00,0x00,0x00,0x00,0x00,
 0x00,0x00,0x00,0x00,0x00,0x00,0x00,0x00,0x00,0x00,0x00,0xc0,0x00,0x00,0x00,
 0x00,0x00,0x00,0xf0,0x00,0x00,0x00,0x00,0x00,0x00,0x00,0xf0,0x07,0x00,0x00,
 0x00,0x00,0x00,0xf0,0xdd,0x02,0x00,0x00,0x00,0x00,0x00,0x00,0x00,0x00,0x00,
 0x00,0x00,0x00,0x00,0x00,0x00,0x00,0x00,0x00,0x00,0x00,0x00,0x00,0x00,0x00,
 0x00,0x00,0x00,0x00,0x00,0x00,0x00,0x00,0x00,0x00,0x00,0x00,0x00,0x00,0x00,
 0x00,0x00,0x00,0x00,0x00,0xf0,0x00,0x00,0x00,0x00,0x00,0x00,0x00,0x80,0x0f,
 0x00,0x00,0x00,0x00,0x00,0xd0,0x36,0x00,0x00,0x00,0x00,0x00,0x00,0x00,0x00,
 0x00,0x00,0x00,0x00,0x00,0x00,0x00,0x00,0x00,0x00,0x00,0x00,0x00,0x00,0x00,
 0x00,0x00,0x00,0x00,0x00,0x00,0x00,0x00,0x00,0x00,0x00,0x00,0x00,0x00,0x00,
 0x00,0x00,0x00,0x00,0x00,0x00,0x00,0xf0,0x00,0x00,0x00,0x00,0x00,0x00,0x00,
 0x00,0x7e,0x00,0x00,0x00,0x00,0x00,0xf0,0x1b,0x00,0x00,0x00,0x00,0x00,0x00,
 0x00,0x00,0x00,0x00,0x00,0x00,0x00,0x00,0x00,0x00,0x00,0x00,0x00,0x00,0x00,
 0x00,0x00,0x00,0x00,0x00,0x00,0x00,0x00,0x00,0x00,0x00,0x00,0x00,0x00,0x00,
 0x00,0x00,0x00,0x00,0x00,0x00,0x00,0x00,0x00,0xf0,0x00,0x00,0x00,0x00,0x00,
 0x00,0x00,0x00,0xf8,0x01,0x00,0x00,0x00,0x00,0x80,0xb6,0x04,0x00,0x00,0x00,
 0x00,0x00,0x00,0x00,0x00,0x00,0x00,0x00,0x00,0x00,0x00,0x00,0x00,0x00,0x00,
 0x00,0x00,0x00,0x00,0x00,0x00,0x00,0x00,0x00,0x00,0x00,0x00,0x00,0x00,0x00,
 0x00,0x00,0x00,0x00,0x00,0x00,0x00,0x00,0x00,0x00,0x00,0xf0,0x00,0x00,0x00,
 0x00,0x00,0x00,0x00,0x00,0xe0,0x07,0x00,0x00,0x00,0x00,0x00,0x2f,0x01,0x00,
 0x00,0x00,0x00,0x00,0x00,0x00,0x00,0x00,0x00,0x00,0x00,0x00,0x00,0x00,0x00,
 0x00,0x00,0x00,0x00,0x00,0x00,0x00,0x00,0x00,0x00,0x00,0x00,0x00,0x00,0x00,
 0x00,0x00,0x00,0x00,0x00,0x00,0x00,0x00,0x00,0x00,0x00,0x00,0x00,0xf0,0x00,
 0x00,0x00,0x00,0x00,0x00,0x00,0x00,0x80,0x1f,0x00,0x00,0x00,0x00,0x80,0xfb,
 0x02,0x00,0x00,0x00,0x00,0x00,0x00,0x00,0x00,0x00,0x00,0x00,0x00,0x00,0x00,
 0x00,0x00,0x00,0x00,0x00,0x00,0x00,0x00,0x00,0x00,0x00,0x00,0x00,0x00,0x00,
 0x00,0x00,0x00,0x00,0x00,0x00,0x00,0x00,0x00,0x00,0x00,0x00,0x00,0x00,0x00,
 0xf0,0x00,0x00,0x00,0x00,0x00,0x00,0x00,0x00,0x00,0x3f,0x00,0x00,0x00,0x00,
 0x80,0x56,0x01,0x00,0x00,0x00,0x00,0x00,0x00,0x00,0x00,0x00,0x00,0x00,0x00,
 0x00,0x00,0x00,0x00,0x00,0x00,0x00,0x00,0x00,0x00,0x00,0x00,0x00,0x00,0x00,
 0x00,0x00,0x00,0x00,0x00,0x00,0x00,0x00,0x00,0x00,0x00,0x00,0x00,0x00,0x00,
 0x00,0x00,0xf0,0x00,0x00,0x00,0x00,0x00,0x00,0x00,0x00,0x00,0x3c,0x00,0x00,
 0x00,0x00,0x00,0xfd,0x01,0x00,0x00,0x00,0x00,0x00,0x00,0x00,0x00,0x00,0x00,
 0x00,0x00,0x00,0x00,0x00,0x00,0x00,0x00,0x00,0x00,0x00,0x00,0x00,0x00,0x00,
 0x00,0x00,0x00,0x00,0x00,0x00,0x00,0x00,0x00,0x00,0x00,0x00,0x00,0x00,0x00,
 0x00,0x00,0x00,0x00,0xf0,0x00,0x00,0x00,0x00,0x00,0x00,0x00,0x00,0x00,0x30,
 0x00,0x00,0x00,0x00,0x00,0xa8,0x00,0x00,0x00,0x00,0x00,0x00,0x00,0x00,0x00,
 0x00,0x00,0x00,0x00,0x00,0x00,0x00,0x00,0x00,0x00,0x00,0x00,0x00,0x00,0x00,
 0x00,0x00,0x00,0x00,0x00,0x00,0x00,0x00,0x00,0x00,0x00,0x00,0x00,0x00,0x00,
 0x00,0x00,0x00,0x00,0x00,0x00,0xf0,0x00,0x00,0x00,0x00,0x00,0x00,0x00,0x00,
 0x00,0x00,0x00,0x00,0x00,0x00,0x00,0xb8,0x02,0x00,0x00,0x00,0x00,0x00,0x00,
 0x00,0x00,0x00,0x00,0x00,0x00,0x00,0x00,0x00,0x00,0x00,0x00,0x00,0x00,0x00,
 0x00,0x00,0x00,0x00,0x00,0x00,0x00,0x00,0x00,0x00,0x00,0x00,0x00,0x00,0x00,
 0x00,0x00,0x00,0x00,0x00,0x00,0x00,0x00,0xf0,0x00,0x00,0x00,0x00,0x00,0x00,
 0x00,0x00,0x00,0x00,0x00,0x00,0x00,0x00,0x00,0xe0,0x15,0x00,0x00,0x00,0x00,
 0x00,0x00,0x00,0x00,0x00,0x00,0x00,0x00,0x00,0x00,0x00,0x00,0x00,0x00,0x00,
 0x00,0x00,0x00,0x00,0x00,0x00,0x00,0x00,0x00,0x00,0x00,0x00,0x00,0x00,0x00,
 0x00,0x00,0x00,0x00,0x00,0x00,0x00,0x00,0x00,0x00,0xf0,0x00,0x00,0x00,0x00,
 0x00,0x00,0x00,0x00,0x00,0x00,0x00,0x00,0x00,0x00,0x00,0x00,0x0a,0x00,0x00,
 0x00,0x00,0x00,0x00,0x00,0x00,0x00,0x00,0x00,0x00,0x00,0x00,0x00,0x00,0x00,
 0x00,0x00,0x00,0x00,0x00,0x00,0x00,0x00,0x00,0x00,0x00,0x00,0x00,0x00,0x00,
 0x00,0x00,0x00,0x00,0x00,0x00,0x00,0x00,0x00,0x00,0x00,0x00,0xf0,0x00,0x00,
 0x00,0x00,0x00,0x00,0x00,0x00,0x00,0x00,0x00,0x00,0x00,0x00,0x00,0x00,0x00,
 0x00,0x00,0x00,0x00,0x00,0x00,0x00,0x00,0x00,0x00,0x00,0x00,0x00,0x00,0x00,
 0x00,0x00,0x00,0x00,0x00,0x00,0x00,0x00,0x00,0x00,0x00,0x00,0x00,0x00,0x00,
 0x00,0x00,0x00,0x00,0x00,0x00,0x00,0x00,0x00,0x00,0x00,0x00,0x00,0x00,0xf0,
 0x00,0x00,0x00,0x00,0x00,0x00,0x00,0x00,0x00,0x00,0x00,0x00,0x00,0x00,0x00,
 0x00,0x00,0x00,0x00,0x00,0x00,0x00,0x00,0x00,0x00,0x00,0x00,0x00,0x00,0x00,
 0x00,0x00,0x00,0x00,0x00,0x00,0x00,0x00,0x00,0x00,0x00,0x00,0x00,0x00,0x00,
 0x00,0x00,0x00,0x00,0x00,0x00,0x00,0x00,0x00,0x00,0x00,0x00,0x00,0x00,0x00,
 0x00,0xf0};
